<svg width="485" height="250" viewBox="0 0 485 250" fill="none" xmlns="http://www.w3.org/2000/svg">
<path d="M125.5 30H54.5" stroke="#00573F" stroke-width="2"/>
<path d="M139 68L139 45" stroke="#00573F" stroke-width="2"/>
<path d="M143 68L143 45" stroke="#00573F" stroke-width="2"/>
<path d="M1 250L1 227" stroke="#00573F" stroke-width="2"/>
<path d="M462 13L485 13" stroke="#00573F" stroke-width="2"/>
<path d="M442 67L442 44" stroke="#00573F" stroke-width="2"/>
<path d="M321 249L321 226" stroke="#00573F" stroke-width="2"/>
<path d="M462 224L485 224" stroke="#00573F" stroke-width="2"/>
<path d="M444 249L444 226" stroke="#00573F" stroke-width="2"/>
<path d="M328 249L328 226" stroke="#00573F" stroke-width="2"/>
<path d="M103.5 1C97.4841 6.35385 88.171 15.0492 89.046 31" stroke="#00573F" stroke-width="2"/>
<path d="M4 69L4 46" stroke="#00573F" stroke-width="2"/>
<path d="M6.86432 57.2929C6.4738 57.6834 6.4738 58.3166 6.86432 58.7071L13.2283 65.0711C13.6188 65.4616 14.252 65.4616 14.6425 65.0711C15.033 64.6805 15.033 64.0474 14.6425 63.6569L8.98565 58L14.6425 52.3431C15.033 51.9526 15.033 51.3195 14.6425 50.9289C14.252 50.5384 13.6188 50.5384 13.2283 50.9289L6.86432 57.2929ZM54 57L7.57143 57V59L54 59V57Z" fill="#00573F"/>
<path d="M144.293 56.2929C143.902 56.6834 143.902 57.3166 144.293 57.7071L150.657 64.0711C151.047 64.4616 151.681 64.4616 152.071 64.0711C152.462 63.6805 152.462 63.0474 152.071 62.6569L146.414 57L152.071 51.3431C152.462 50.9526 152.462 50.3195 152.071 49.9289C151.681 49.5384 151.047 49.5384 150.657 49.9289L144.293 56.2929ZM276 56L145 56V58L276 58V56Z" fill="#00573F"/>
<path d="M2.29289 238.293C1.90237 238.683 1.90237 239.317 2.29289 239.707L8.65686 246.071C9.04738 246.462 9.68054 246.462 10.0711 246.071C10.4616 245.681 10.4616 245.047 10.0711 244.657L4.41422 239L10.0711 233.343C10.4616 232.953 10.4616 232.319 10.0711 231.929C9.68054 231.538 9.04738 231.538 8.65686 231.929L2.29289 238.293ZM145 238L3 238V240L145 240V238Z" fill="#00573F"/>
<path d="M473.707 14.2929C473.317 13.9024 472.683 13.9024 472.293 14.2929L465.929 20.6569C465.538 21.0474 465.538 21.6805 465.929 22.0711C466.319 22.4616 466.953 22.4616 467.343 22.0711L473 16.4142L478.657 22.0711C479.047 22.4616 479.681 22.4616 480.071 22.0711C480.462 21.6805 480.462 21.0474 480.071 20.6569L473.707 14.2929ZM474 107L474 15L472 15L472 107L474 107Z" fill="#00573F"/>
<path d="M328.293 237.293C327.902 237.683 327.902 238.317 328.293 238.707L334.657 245.071C335.047 245.462 335.681 245.462 336.071 245.071C336.462 244.681 336.462 244.047 336.071 243.657L330.414 238L336.071 232.343C336.462 231.953 336.462 231.319 336.071 230.929C335.681 230.538 335.047 230.538 334.657 230.929L328.293 237.293ZM368 237H329V239H368V237Z" fill="#00573F"/>
<path d="M137.707 57.7071C138.098 57.3166 138.098 56.6834 137.707 56.2929L131.343 49.9289C130.953 49.5384 130.319 49.5384 129.929 49.9289C129.538 50.3195 129.538 50.9526 129.929 51.3431L135.586 57L129.929 62.6569C129.538 63.0474 129.538 63.6805 129.929 64.0711C130.319 64.4616 130.953 64.4616 131.343 64.0711L137.707 57.7071ZM87 58L137 58L137 56L87 56L87 58Z" fill="#00573F"/>
<path d="M442.707 56.7071C443.098 56.3166 443.098 55.6834 442.707 55.2929L436.343 48.9289C435.953 48.5384 435.319 48.5384 434.929 48.9289C434.538 49.3195 434.538 49.9526 434.929 50.3432L440.586 56L434.929 61.6569C434.538 62.0474 434.538 62.6806 434.929 63.0711C435.319 63.4616 435.953 63.4616 436.343 63.0711L442.707 56.7071ZM308 57L442 57L442 55L308 55L308 57Z" fill="#00573F"/>
<path d="M321.707 238.707C322.098 238.317 322.098 237.683 321.707 237.293L315.343 230.929C314.953 230.538 314.319 230.538 313.929 230.929C313.538 231.319 313.538 231.953 313.929 232.343L319.586 238L313.929 243.657C313.538 244.047 313.538 244.681 313.929 245.071C314.319 245.462 314.953 245.462 315.343 245.071L321.707 238.707ZM178 239L321 239L321 237L178 237L178 239Z" fill="#00573F"/>
<path d="M472.293 222.707C472.683 223.098 473.317 223.098 473.707 222.707L480.071 216.343C480.462 215.953 480.462 215.319 480.071 214.929C479.681 214.538 479.047 214.538 478.657 214.929L473 220.586L467.343 214.929C466.953 214.538 466.319 214.538 465.929 214.929C465.538 215.319 465.538 215.953 465.929 216.343L472.293 222.707ZM472 134L472 222L474 222L474 134L472 134Z" fill="#00573F"/>
<path d="M442.707 237.707C443.098 237.317 443.098 236.683 442.707 236.293L436.343 229.929C435.953 229.538 435.319 229.538 434.929 229.929C434.538 230.319 434.538 230.953 434.929 231.343L440.586 237L434.929 242.657C434.538 243.047 434.538 243.681 434.929 244.071C435.319 244.462 435.953 244.462 436.343 244.071L442.707 237.707ZM396 238H442V236H396V238Z" fill="#00573F"/>
</svg>
