<svg width="453" height="349" viewBox="0 0 453 349" fill="none" xmlns="http://www.w3.org/2000/svg">
<rect x="8" y="134" width="445" height="30" rx="15" fill="#FFB81C"/>
<path d="M15.7076 22.7476C18.3076 20.1256 22.5408 20.1077 25.1628 22.7077L151.57 148.053L149.196 150.448C145.307 154.369 138.976 154.396 135.054 150.507L15.7475 32.2028C13.1255 29.6028 13.1076 25.3696 15.7076 22.7476Z" fill="#747474"/>
<path d="M156.5 149C156.5 155.332 151.147 160.5 144.5 160.5C137.853 160.5 132.5 155.332 132.5 149C132.5 142.668 137.853 137.5 144.5 137.5C151.147 137.5 156.5 142.668 156.5 149Z" fill="white" stroke="black"/>
<path d="M1 53L1 -1.5299e-06C1 3.77822 8.25226 6.64686 11.8784 7.34653C20.0766 8.74587 36 13.1188 36 26.2376C36 39.8913 19.4459 44.0792 11.8784 45.1287C5.82433 45.9683 2.1036 50.5512 1 53Z" fill="#D9D9D9" stroke="black"/>
<path d="M20 38.5C13.6678 38.5 8.5 33.1468 8.5 26.5C8.5 19.8531 13.6678 14.5 20 14.5C26.3322 14.5 31.5 19.8531 31.5 26.5C31.5 33.1469 26.3322 38.5 20 38.5Z" fill="white" stroke="black"/>
<rect x="5" y="319" width="448" height="30" rx="15" fill="#FFB81C"/>
<path d="M435.5 141C439.09 141 442 143.91 442 147.5L442 342L439 342C433.477 342 429 337.523 429 332L429 147.5C429 143.91 431.91 141 435.5 141Z" fill="#747474"/>
<path d="M19.5 137C23.0899 137 26 139.91 26 143.5L26 338L23 338C17.4771 338 13 333.523 13 328L13 143.5C13 139.91 15.9102 137 19.5 137Z" fill="#747474"/>
<path d="M447.5 149C447.5 155.332 442.147 160.5 435.5 160.5C428.853 160.5 423.5 155.332 423.5 149C423.5 142.668 428.853 137.5 435.5 137.5C442.147 137.5 447.5 142.668 447.5 149Z" fill="white" stroke="black"/>
<path d="M0.999998 174L1 121C1 124.778 8.25225 127.647 11.8784 128.347C20.0766 129.746 36 134.119 36 147.238C36 160.891 19.4459 165.079 11.8784 166.129C5.82432 166.968 2.1036 171.551 0.999998 174Z" fill="#D9D9D9" stroke="black"/>
<path d="M20 159.5C13.6678 159.5 8.5 154.147 8.5 147.5C8.5 140.853 13.6678 135.5 20 135.5C26.3322 135.5 31.5 140.853 31.5 147.5C31.5 154.147 26.3322 159.5 20 159.5Z" fill="white" stroke="black"/>
<path d="M447.5 334C447.5 340.332 442.147 345.5 435.5 345.5C428.853 345.5 423.5 340.332 423.5 334C423.5 327.668 428.853 322.5 435.5 322.5C442.147 322.5 447.5 327.668 447.5 334Z" fill="white" stroke="black"/>
<path d="M32.5 334C32.5 340.332 27.1469 345.5 20.5 345.5C13.8531 345.5 8.5 340.332 8.5 334C8.5 327.668 13.8531 322.5 20.5 322.5C27.1469 322.5 32.5 327.668 32.5 334Z" fill="white" stroke="black"/>
</svg>
